<svg width="265" height="134" viewBox="0 0 265 134" fill="none" xmlns="http://www.w3.org/2000/svg">
<path d="M0.52951 0.73822H264.288V132.806H0.52951V0.73822Z" stroke="#ECECED" stroke-width="0.5669"/>
<path fill-rule="evenodd" clip-rule="evenodd" d="M142.786 53.5122C141.313 54.3652 139.185 54.7881 136.407 54.7881C133.158 54.7881 130.529 53.8084 128.52 51.8347C126.511 49.868 125.503 47.3304 125.503 44.2151C125.503 40.6203 126.581 37.7935 128.732 35.7211C130.888 33.649 133.771 32.6127 137.38 32.6127C139.868 32.6127 141.673 32.944 142.786 33.5997V39.14C141.426 38.1178 139.904 37.6104 138.226 37.6104C136.351 37.6104 134.871 38.153 133.771 39.2525C132.679 40.3453 132.129 41.8536 132.129 43.7851C132.129 45.6529 132.657 47.126 133.701 48.1905C134.744 49.262 136.189 49.7906 138.015 49.7906C139.643 49.7906 141.229 49.2832 142.786 48.261V53.5122ZM157.138 54.7881C153.614 54.7881 150.843 53.8014 148.828 51.8276C146.812 49.8541 145.804 47.1686 145.804 43.7851C145.804 40.2889 146.847 37.5469 148.94 35.5732C151.034 33.5997 153.867 32.6127 157.427 32.6127C160.937 32.6127 163.693 33.5997 165.688 35.5732C167.683 37.5469 168.684 40.1619 168.684 43.4115C168.684 46.9217 167.655 49.6991 165.597 51.736C163.538 53.773 160.719 54.7881 157.138 54.7881ZM157.307 37.6104C155.764 37.6104 154.565 38.1391 153.712 39.1964C152.859 40.2605 152.429 41.762 152.429 43.7004C152.429 47.7604 154.072 49.7906 157.35 49.7906C160.472 49.7906 162.037 47.704 162.037 43.5382C162.037 39.5839 160.458 37.6104 157.307 37.6104ZM193.608 62.2614H187.081V51.3624H187.004C185.516 53.6463 183.331 54.7881 180.455 54.7881C177.812 54.7881 175.683 53.8578 174.076 51.9897C172.462 50.1288 171.658 47.5209 171.658 44.1726C171.658 40.6767 172.547 37.8783 174.323 35.7705C176.099 33.6629 178.425 32.6127 181.301 32.6127C184.029 32.6127 185.925 33.5855 187.004 35.5451H187.081V22.97H193.608V62.2614ZM187.208 43.9895V42.3964C187.208 41.0219 186.806 39.8801 186.01 38.9708C185.213 38.0614 184.17 37.6104 182.894 37.6104C181.449 37.6104 180.314 38.1742 179.504 39.3089C178.693 40.451 178.284 42.0087 178.284 43.9895C178.284 45.8505 178.679 47.2811 179.461 48.282C180.251 49.29 181.336 49.7906 182.725 49.7906C184.05 49.7906 185.129 49.262 185.96 48.2046C186.792 47.1402 187.208 45.7376 187.208 43.9895ZM218.103 45.5613H204.308C204.527 48.6276 206.465 50.1642 210.11 50.1642C212.435 50.1642 214.48 49.6143 216.242 48.5147V53.2234C214.289 54.2665 211.752 54.7881 208.622 54.7881C205.211 54.7881 202.56 53.8436 200.671 51.9475C198.789 50.0585 197.845 47.4152 197.845 44.0317C197.845 40.5213 198.86 37.7371 200.904 35.686C202.941 33.6348 205.443 32.6127 208.418 32.6127C211.498 32.6127 213.888 33.5291 215.572 35.3546C217.257 37.1875 218.103 39.6755 218.103 42.8123V45.5613ZM212.055 41.5506C212.055 38.5266 210.828 37.0112 208.375 37.0112C207.332 37.0112 206.423 37.4412 205.662 38.308C204.893 39.1751 204.435 40.2605 204.266 41.5506H212.055Z" fill="#8DC641"/>
<path fill-rule="evenodd" clip-rule="evenodd" d="M99.7265 109.298C98.2534 110.151 96.1248 110.574 93.3474 110.574C90.0981 110.574 87.4689 109.594 85.46 107.62C83.4511 105.654 82.4431 103.116 82.4431 100.001C82.4431 96.4058 83.5214 93.5791 85.6715 91.5067C87.8284 89.4346 90.7112 88.3982 94.3203 88.3982C96.8085 88.3982 98.6131 88.7296 99.7265 89.3852V94.9255C98.3662 93.9034 96.8437 93.396 95.1661 93.396C93.291 93.396 91.8108 93.9385 90.7112 95.0381C89.6187 96.1308 89.0688 97.6391 89.0688 99.5707C89.0688 101.438 89.5975 102.912 90.6409 103.976C91.6841 105.048 93.1289 105.576 94.9547 105.576C96.5829 105.576 98.1689 105.069 99.7265 104.047V109.298ZM124.094 110.059H117.589V106.838H117.49C115.876 109.326 113.726 110.574 111.026 110.574C106.12 110.574 103.674 107.606 103.674 101.671V88.913H110.18V101.093C110.18 104.082 111.364 105.576 113.733 105.576C114.903 105.576 115.833 105.167 116.538 104.35C117.243 103.532 117.589 102.418 117.589 101.016V88.913H124.094V110.059ZM143.387 94.7986C142.597 94.3685 141.681 94.1571 140.638 94.1571C139.221 94.1571 138.114 94.6786 137.311 95.715C136.514 96.7581 136.112 98.1678 136.112 99.9582V110.059H129.592V88.913H136.112V92.839H136.197C137.233 89.97 139.087 88.5394 141.773 88.5394C142.463 88.5394 142.999 88.6238 143.387 88.786V94.7986ZM149.886 85.5647C148.786 85.5647 147.884 85.2404 147.186 84.5848C146.481 83.9294 146.129 83.1329 146.129 82.1813C146.129 81.2016 146.481 80.4051 147.186 79.7846C147.884 79.1643 148.786 78.8542 149.886 78.8542C151.006 78.8542 151.909 79.1643 152.607 79.7846C153.297 80.4051 153.65 81.2016 153.65 82.1813C153.65 83.168 153.297 83.9858 152.607 84.6202C151.909 85.2475 151.006 85.5647 149.886 85.5647ZM153.107 110.059H146.587V88.913H153.107V110.059ZM171.384 109.813C170.419 110.32 168.967 110.574 167.028 110.574C162.432 110.574 160.127 108.184 160.127 103.412V93.7271H156.702V88.913H160.127V84.3523L166.634 82.4914V88.913H171.384V93.7271H166.634V102.277C166.634 104.477 167.507 105.576 169.256 105.576C169.946 105.576 170.658 105.379 171.384 104.977V109.813ZM178.362 85.5647C177.263 85.5647 176.361 85.2404 175.663 84.5848C174.958 83.9294 174.606 83.1329 174.606 82.1813C174.606 81.2016 174.958 80.4051 175.663 79.7846C176.361 79.1643 177.263 78.8542 178.362 78.8542C179.483 78.8542 180.386 79.1643 181.083 79.7846C181.774 80.4051 182.127 81.2016 182.127 82.1813C182.127 83.168 181.774 83.9858 181.083 84.6202C180.386 85.2475 179.483 85.5647 178.362 85.5647ZM181.584 110.059H175.064V88.913H181.584V110.059ZM193.687 107.599H193.602V110.059H187.082V78.7556H193.602V92.0917H193.687C195.301 89.6318 197.592 88.3982 200.566 88.3982C203.287 88.3982 205.387 89.3356 206.861 91.2037C208.334 93.0788 209.074 95.6373 209.074 98.887C209.074 102.411 208.214 105.238 206.494 107.374C204.767 109.509 202.469 110.574 199.593 110.574C196.992 110.574 195.026 109.587 193.687 107.599ZM193.503 98.6823V100.846C193.503 102.214 193.891 103.342 194.68 104.237C195.463 105.132 196.471 105.576 197.697 105.576C199.178 105.576 200.334 105.005 201.151 103.856C201.969 102.707 202.385 101.079 202.385 98.9714C202.385 97.2233 202.004 95.8559 201.257 94.8691C200.503 93.8892 199.438 93.396 198.043 93.396C196.739 93.396 195.653 93.8821 194.793 94.862C193.933 95.8346 193.503 97.1105 193.503 98.6823ZM230.488 110.059H224.313V107.021H224.229C222.812 109.39 220.712 110.574 217.927 110.574C215.876 110.574 214.262 109.996 213.085 108.833C211.908 107.67 211.323 106.112 211.323 104.173C211.323 100.071 213.754 97.7026 218.611 97.0683L224.356 96.3069C224.356 93.9949 223.101 92.839 220.592 92.839C218.075 92.839 215.679 93.5862 213.409 95.0877V90.1747C214.318 89.7024 215.559 89.2934 217.138 88.934C218.71 88.5745 220.148 88.3982 221.445 88.3982C227.471 88.3982 230.488 91.408 230.488 97.4206V110.059ZM224.356 101.467V100.043L220.514 100.536C218.392 100.811 217.335 101.77 217.335 103.412C217.335 104.152 217.589 104.765 218.103 105.238C218.625 105.71 219.323 105.95 220.204 105.95C221.43 105.95 222.424 105.527 223.2 104.681C223.968 103.835 224.356 102.764 224.356 101.467Z" fill="#8DC641"/>
<path fill-rule="evenodd" clip-rule="evenodd" d="M199.175 56.5977C198.334 56.2658 197.521 56.096 196.751 56.096C194.653 56.096 193.607 57.2338 193.607 59.5163V61.7707H198.447V66.5972H193.607V82.9707H187.084V66.5972H183.523V61.7707H187.084V59.1418C187.084 56.725 187.868 54.7819 189.445 53.3047C191.013 51.8279 193.154 51.0858 195.861 51.0858C197.182 51.0858 198.292 51.2272 199.175 51.5027V56.5977ZM211.697 83.4866C208.164 83.4866 205.387 82.4973 203.366 80.5185C201.345 78.5399 200.334 75.8475 200.334 72.4556C200.334 68.9506 201.38 66.2015 203.479 64.2229C205.578 62.2441 208.418 61.2548 211.987 61.2548C215.506 61.2548 218.269 62.2441 220.269 64.2229C222.269 66.2015 223.273 68.8233 223.273 72.0809C223.273 75.6001 222.241 78.3845 220.177 80.4266C218.114 82.469 215.287 83.4866 211.697 83.4866ZM211.867 66.265C210.319 66.265 209.118 66.7951 208.263 67.855C207.408 68.9222 206.977 70.4274 206.977 72.3706C206.977 76.4411 208.623 78.4764 211.909 78.4764C215.04 78.4764 216.609 76.3847 216.609 72.2081C216.609 68.2439 215.026 66.265 211.867 66.265ZM241.349 67.6713C240.558 67.2404 239.639 67.0284 238.593 67.0284C237.172 67.0284 236.063 67.5511 235.258 68.59C234.459 69.636 234.056 71.0493 234.056 72.8442V82.9707H227.52V61.7707H234.056V65.7069H234.141C235.18 62.8306 237.039 61.3962 239.731 61.3962C240.423 61.3962 240.96 61.481 241.349 61.6434V67.6713Z" fill="#E30016"/>
<path fill-rule="evenodd" clip-rule="evenodd" d="M32.6557 97.63L32.828 97.857L38.8082 95.3967L42.7177 93.9942L42.6972 90.1843L39.0324 89.1412L36.6321 92.5304L32.6557 97.63Z" fill="#565757"/>
<path fill-rule="evenodd" clip-rule="evenodd" d="M41.9838 30.9342L41.7576 31.1072L44.2173 37.0876L45.6189 40.9966L49.431 40.9766L50.4725 37.3118L47.0831 34.9099L41.9838 30.9342Z" fill="#565757"/>
<path fill-rule="evenodd" clip-rule="evenodd" d="M77.2652 21.7853L76.9827 21.747L74.4942 27.7142L72.7212 31.4711L75.4296 34.1512L78.7594 32.2964L78.0601 28.2031L77.2652 21.7853Z" fill="#565757"/>
<path fill-rule="evenodd" clip-rule="evenodd" d="M29.5469 44.9284L30.0066 50.4011L31.8932 51.8114L34.2936 47.7012L36.6945 43.5914L34.5399 42.641L29.5469 44.9284Z" fill="#565757"/>
<path fill-rule="evenodd" clip-rule="evenodd" d="M66.6875 66.1877L66.3078 66.8374L49.5988 62.1532L38.7457 59.636L37.2566 54.6352L35.1008 53.6848L37.5025 49.5755L39.9023 45.4653L41.7889 46.8752L46.8764 45.717L54.4001 53.9345L66.6875 66.1877ZM63.899 64.8474L63.7709 65.0673L53.3696 60.7063L46.6883 58.0951L44.9275 55.7748L46.5493 52.9978L49.436 53.392L54.9911 57.9284L63.899 64.8474Z" fill="#565757"/>
<path fill-rule="evenodd" clip-rule="evenodd" d="M24.6063 81.0409L28.8011 84.5849L31.1323 84.2485L29.9233 79.6447L28.715 75.041L26.5192 75.8924L24.6063 81.0409Z" fill="#565757"/>
<path fill-rule="evenodd" clip-rule="evenodd" d="M65.9004 69.8104L66.0926 70.5388L50.9649 79.0409L41.5104 84.9359L36.9213 82.4536L34.7255 83.3045L33.5174 78.7004L32.3079 74.0982L34.6394 73.7607L37.4175 69.3441L48.5483 69.8351L65.9004 69.8104ZM62.9825 70.834L63.0469 71.081L52.6075 75.3526L46.0367 78.2297L43.1508 77.8344L42.3347 74.7235L44.6534 72.9622L51.7911 72.2414L62.9825 70.834Z" fill="#565757"/>
<path fill-rule="evenodd" clip-rule="evenodd" d="M46.6478 110.069L52.1201 109.609L53.5305 107.723L49.4206 105.322L45.3108 102.921L44.3601 105.076L46.6478 110.069Z" fill="#565757"/>
<path fill-rule="evenodd" clip-rule="evenodd" d="M94.6877 27.8277L89.2151 28.2878L87.8047 30.1744L91.915 32.5748L96.0248 34.9757L96.9755 32.821L94.6877 27.8277Z" fill="#565757"/>
<path fill-rule="evenodd" clip-rule="evenodd" d="M73.4285 64.9686L72.7786 64.5886L77.4628 47.8799L79.9804 37.0268L84.9807 35.5369L85.9314 33.3824L90.041 35.7833L94.1509 38.1828L92.7413 40.0703L93.8992 45.1572L85.6817 52.6812L73.4285 64.9686ZM74.7685 62.1806L74.5489 62.0517L78.9088 51.6499L81.5208 44.9686L83.8411 43.2078L86.6187 44.8307L86.2242 47.7163L81.6875 53.2725L74.7685 62.1806Z" fill="#565757"/>
<path fill-rule="evenodd" clip-rule="evenodd" d="M58.5761 22.8869L55.0308 27.0821L55.3682 29.413L59.9717 28.2041L64.5755 26.9961L63.7241 24.8003L58.5761 22.8869Z" fill="#565757"/>
<path fill-rule="evenodd" clip-rule="evenodd" d="M69.805 64.1821L69.0774 64.3734L60.5748 49.2462L54.6805 39.7912L57.1626 35.2021L56.3111 33.0063L60.915 31.7976L65.5186 30.589L65.8552 32.9205L70.2721 35.6986L69.7822 46.8289L69.805 64.1821ZM68.7816 61.2622L68.5355 61.328L64.2636 50.8889L61.3857 44.3172L61.7812 41.4322L64.8922 40.6155L66.6546 42.9345L67.3753 50.0716L68.7816 61.2622Z" fill="#565757"/>
<path fill-rule="evenodd" clip-rule="evenodd" d="M32.6553 97.6321L32.8276 97.8591L38.8079 95.3995L42.7174 93.997L42.6973 90.187L39.0323 89.1436L36.6319 92.5335L32.6553 97.6321Z" fill="#565757"/>
<path fill-rule="evenodd" clip-rule="evenodd" d="M41.9842 30.9371L41.7581 31.1102L44.2175 37.091L45.6195 40.9999L49.4309 40.98L50.473 37.3151L47.0834 34.9132L41.9842 30.9371Z" fill="#565757"/>
<path fill-rule="evenodd" clip-rule="evenodd" d="M77.2656 21.7883L76.9831 21.7499L74.4942 27.7179L72.721 31.4739L75.4297 34.1542L78.7592 32.2992L78.06 28.2063L77.2656 21.7883Z" fill="#565757"/>
<path fill-rule="evenodd" clip-rule="evenodd" d="M29.547 44.9314L30.0071 50.404L31.8935 51.8141L34.294 47.7038L36.6949 43.594L34.5405 42.6442L29.547 44.9314Z" fill="#565757"/>
<path fill-rule="evenodd" clip-rule="evenodd" d="M24.6063 81.0436L28.8012 84.5876L31.1325 84.2505L29.9232 79.6471L28.7152 75.0433L26.5196 75.8953L24.6063 81.0436Z" fill="#565757"/>
<path fill-rule="evenodd" clip-rule="evenodd" d="M46.6475 110.072L52.1205 109.612L53.5305 107.725L49.4203 105.325L45.3108 102.924L44.3601 105.079L46.6475 110.072Z" fill="#565757"/>
<path fill-rule="evenodd" clip-rule="evenodd" d="M94.6876 27.8312L89.2148 28.2906L87.8048 30.1771L91.9147 32.5776L96.0247 34.9791L96.9753 32.8238L94.6876 27.8312Z" fill="#565757"/>
<path fill-rule="evenodd" clip-rule="evenodd" d="M58.576 22.8903L55.0312 27.0847L55.368 29.4158L59.9716 28.2072L64.5756 26.9988L63.7243 24.8033L58.576 22.8903Z" fill="#565757"/>
<path fill-rule="evenodd" clip-rule="evenodd" d="M23.5068 62.3506L23.4679 62.6322L29.4362 65.1214L33.1921 66.8943L35.8716 64.1861L34.0176 60.8568L29.9242 61.5554L23.5068 62.3506Z" fill="#565757"/>
<path fill-rule="evenodd" clip-rule="evenodd" d="M23.5067 62.353L23.4684 62.6355L29.4363 65.1241L33.192 66.8978L35.872 64.1888L34.0182 60.86L29.9242 61.5581L23.5067 62.353Z" fill="#565757"/>
<path fill-rule="evenodd" clip-rule="evenodd" d="M67.9069 72.9287L68.5566 73.3081L63.8729 90.0168L61.3552 100.871L56.3547 102.36L55.4043 104.515L51.2947 102.114L47.1842 99.7142L48.5944 97.8267L47.4362 92.7398L55.6529 85.2153L67.9069 72.9287ZM66.5671 75.7161L66.787 75.845L62.4257 86.2466L59.8146 92.9279L57.4946 94.6889L54.7173 93.0669L55.1118 90.1807L59.6476 84.6242L66.5671 75.7161Z" fill="#565757"/>
<path fill-rule="evenodd" clip-rule="evenodd" d="M69.9322 66.1458C71.4797 65.7395 73.0641 66.6645 73.4703 68.2131C73.8766 69.7606 72.9514 71.3443 71.4036 71.751C69.8554 72.1571 68.2714 71.2323 67.8649 69.6839C67.4589 68.1363 68.3843 66.5518 69.9322 66.1458Z" fill="#565757"/>
<path fill-rule="evenodd" clip-rule="evenodd" d="M69.9319 66.1486C71.4797 65.7422 73.0638 66.6673 73.4703 68.2155C73.8763 69.7634 72.9511 71.3471 71.4034 71.7538C69.8555 72.1599 68.2715 71.235 67.8651 69.6872C67.4587 68.1391 68.3844 66.5549 69.9319 66.1486Z" fill="#565757"/>
</svg>
