<svg width="539" height="180" viewBox="0 0 539 180" fill="none" xmlns="http://www.w3.org/2000/svg">
<path fill-rule="evenodd" clip-rule="evenodd" d="M0 57.6114C0 25.8473 25.6566 0 57.1983 0C88.74 0 114.397 25.8473 114.397 57.6114C114.397 102.754 62.5749 149.364 60.3633 151.328C59.4608 152.128 58.3296 152.529 57.1983 152.529C56.067 152.529 54.9358 152.128 54.0333 151.321C51.8217 149.364 0 102.754 0 57.6114ZM89.6707 52.9252C90.5829 51.351 92.2856 50.2906 94.2319 50.2906C97.1382 50.2906 99.5012 52.6535 99.5012 55.5598C99.5012 58.4661 97.1382 60.8291 94.2319 60.8291C92.2856 60.8291 90.5829 59.7686 89.6707 58.1944H84.8856C84.3488 63.8487 82.1046 69.0124 78.6733 73.1601L82.0674 76.5541C83.824 76.0852 85.7781 76.5396 87.1545 77.9144C89.2095 79.9694 89.2095 83.3121 87.1545 85.3671C85.0957 87.4259 81.753 87.4183 79.7018 85.3671C78.3272 83.9909 77.8725 82.0366 78.3415 80.28L74.9474 76.8859C70.7997 80.3172 65.636 82.5614 59.9818 83.0982V87.8833C61.556 88.7956 62.6164 90.4982 62.6164 92.4445C62.6164 95.3509 60.2535 97.7138 57.3472 97.7138C54.4409 97.7138 52.0779 95.3509 52.0779 92.4445C52.0779 90.4982 53.1384 88.7956 54.7126 87.8833V83.0982C49.0583 82.5614 43.8946 80.3172 39.7469 76.8859L36.3529 80.28C36.8218 82.0366 36.3674 83.9907 34.9926 85.3671C32.9414 87.4183 29.5987 87.4259 27.5399 85.3671C25.4849 83.3121 25.4849 79.9694 27.5399 77.9144C28.9162 76.5398 30.8704 76.0852 32.627 76.5541L36.0211 73.1601C32.5898 69.0124 30.3456 63.8487 29.8088 58.1944H25.0237C24.1114 59.7686 22.4088 60.8291 20.4625 60.8291C17.5562 60.8291 15.1932 58.4661 15.1932 55.5598C15.1932 52.6535 17.5562 50.2906 20.4625 50.2906C22.4088 50.2906 24.1114 51.351 25.0237 52.9252H29.8088C30.3456 47.271 32.5898 42.1073 36.0211 37.9596L32.627 34.5655C30.8803 35.0358 28.9188 34.5818 27.5399 33.2052C25.4849 31.1502 25.4849 27.8075 27.5399 25.7525C29.5949 23.6975 32.9376 23.6975 34.9926 25.7525C36.3672 27.1288 36.8218 29.0829 36.3529 30.8397L39.7469 34.2337C43.8946 30.8024 49.0583 28.5582 54.7126 28.0214V23.2363C53.1384 22.3241 52.0779 20.6214 52.0779 18.6751C52.0779 15.7688 54.4409 13.4059 57.3472 13.4059C60.2535 13.4059 62.6164 15.7688 62.6164 18.6751C62.6164 20.6214 61.556 22.3241 59.9818 23.2363V28.0214C65.636 28.5582 70.7997 30.8024 74.9474 34.2337L78.3415 30.8397C77.8725 29.083 78.327 27.129 79.7018 25.7525C81.7568 23.6975 85.0995 23.6975 87.1545 25.7525C89.2095 27.8075 89.2095 31.1502 87.1545 33.2052C85.7749 34.5826 83.8133 35.0354 82.0674 34.5655L78.6733 37.9596C82.1046 42.1073 84.3488 47.271 84.8856 52.9252H89.6707Z" fill="#F05600"/>
<circle cx="45.6609" cy="52.3234" r="6.33731" fill="#F05600"/>
<circle cx="65.7291" cy="45.9861" r="4.57695" fill="#F05600"/>
<circle cx="60.9761" cy="69.399" r="6.86542" fill="#F05600"/>
<path fill-rule="evenodd" clip-rule="evenodd" d="M12.1649 172.868C12.1649 169.387 14.8494 166.565 18.1608 166.565L95.3074 166.565C98.6188 166.565 101.303 169.387 101.303 172.868C101.303 176.349 98.6188 179.171 95.3074 179.171L18.1608 179.171C14.8493 179.171 12.1649 176.349 12.1649 172.868Z" fill="#F05600"/>
<path d="M156.134 59.9202C156.134 54.8067 156.914 50.2856 158.475 46.3569C160.036 42.3658 162.158 39.0296 164.843 36.3481C167.527 33.6042 170.68 31.5152 174.3 30.0809C177.921 28.6466 181.792 27.9294 185.912 27.9294C189.845 27.9294 193.372 28.7401 196.493 30.3615C199.615 31.9205 202.268 33.7289 204.453 35.7868L195.651 45.7021C194.215 44.4549 192.748 43.4883 191.25 42.8023C189.751 42.1164 187.972 41.7734 185.912 41.7734C184.039 41.7734 182.291 42.1787 180.668 42.9894C179.045 43.8001 177.64 44.9538 176.454 46.4504C175.268 47.9471 174.332 49.7867 173.645 51.9693C172.958 54.1519 172.615 56.6151 172.615 59.359C172.615 65.0961 173.926 69.4925 176.548 72.5481C179.17 75.6038 182.541 77.1316 186.661 77.1316C188.659 77.1316 190.438 76.6951 191.999 75.822C193.622 74.8866 195.089 73.7018 196.4 72.2675L205.202 81.9957C202.58 84.989 199.615 87.2339 196.306 88.7306C192.997 90.2272 189.47 90.9756 185.725 90.9756C181.729 90.9756 177.952 90.352 174.394 89.1047C170.836 87.7952 167.683 85.862 164.936 83.3053C162.252 80.6861 160.098 77.4434 158.475 73.5771C156.914 69.6484 156.134 65.0961 156.134 59.9202Z" fill="black"/>
<path d="M211.439 66.468C211.439 62.6017 212.095 59.1407 213.406 56.0851C214.779 53.0294 216.59 50.4726 218.837 48.4148C221.084 46.2945 223.644 44.7043 226.516 43.6442C229.45 42.5217 232.477 41.9605 235.599 41.9605C238.658 41.9605 241.623 42.5217 244.495 43.6442C247.429 44.7043 250.019 46.2945 252.267 48.4148C254.514 50.4726 256.325 53.0294 257.698 56.0851C259.071 59.1407 259.758 62.6017 259.758 66.468C259.758 70.3343 259.071 73.7953 257.698 76.851C256.325 79.9066 254.514 82.4946 252.267 84.6148C250.019 86.6727 247.429 88.2629 244.495 89.3854C241.623 90.4455 238.658 90.9756 235.599 90.9756C232.477 90.9756 229.45 90.4455 226.516 89.3854C223.644 88.2629 221.084 86.6727 218.837 84.6148C216.59 82.4946 214.779 79.9066 213.406 76.851C212.095 73.7953 211.439 70.3343 211.439 66.468ZM227.92 66.468C227.92 70.0225 228.513 72.8599 229.699 74.9802C230.885 77.0381 232.852 78.067 235.599 78.067C238.346 78.067 240.312 77.0381 241.498 74.9802C242.684 72.8599 243.277 70.0225 243.277 66.468C243.277 62.9135 242.684 60.1073 241.498 58.0494C240.312 55.9292 238.346 54.869 235.599 54.869C232.852 54.869 230.885 55.9292 229.699 58.0494C228.513 60.1073 227.92 62.9135 227.92 66.468Z" fill="black"/>
<path d="M273.393 43.083H286.597L287.814 52.9982H288.188C290.436 49.1319 293.151 46.3257 296.335 44.5796C299.519 42.8335 302.89 41.9605 306.448 41.9605C308.633 41.9605 310.319 42.1476 311.505 42.5217C312.754 42.8335 314.033 43.27 315.344 43.8313L312.161 57.3011C310.725 56.8646 309.414 56.5528 308.228 56.3657C307.104 56.1162 305.699 55.9915 304.014 55.9915C301.329 55.9915 298.676 56.8022 296.054 58.4236C293.432 59.9826 291.247 62.7264 289.499 66.6551V89.8531H273.393V43.083Z" fill="black"/>
<path d="M323.735 66.468C323.735 62.6017 324.391 59.1407 325.702 56.0851C327.075 53.0294 328.886 50.4726 331.133 48.4148C333.38 46.2945 335.94 44.7043 338.812 43.6442C341.746 42.5217 344.773 41.9605 347.895 41.9605C350.954 41.9605 353.919 42.5217 356.791 43.6442C359.725 44.7043 362.316 46.2945 364.563 48.4148C366.81 50.4726 368.621 53.0294 369.994 56.0851C371.367 59.1407 372.054 62.6017 372.054 66.468C372.054 70.3343 371.367 73.7953 369.994 76.851C368.621 79.9066 366.81 82.4946 364.563 84.6148C362.316 86.6727 359.725 88.2629 356.791 89.3854C353.919 90.4455 350.954 90.9756 347.895 90.9756C344.773 90.9756 341.746 90.4455 338.812 89.3854C335.94 88.2629 333.38 86.6727 331.133 84.6148C328.886 82.4946 327.075 79.9066 325.702 76.851C324.391 73.7953 323.735 70.3343 323.735 66.468ZM340.216 66.468C340.216 70.0225 340.809 72.8599 341.995 74.9802C343.182 77.0381 345.148 78.067 347.895 78.067C350.642 78.067 352.608 77.0381 353.794 74.9802C354.98 72.8599 355.573 70.0225 355.573 66.468C355.573 62.9135 354.98 60.1073 353.794 58.0494C352.608 55.9292 350.642 54.869 347.895 54.869C345.148 54.869 343.182 55.9292 341.995 58.0494C340.809 60.1073 340.216 62.9135 340.216 66.468Z" fill="black"/>
<path d="M381.944 43.083H395.053L396.177 48.6954H396.552C398.424 46.8869 400.641 45.3279 403.2 44.0184C405.76 42.6464 408.756 41.9605 412.19 41.9605C417.371 41.9605 421.148 43.7066 423.52 47.1987C425.892 50.6285 427.079 55.2432 427.079 61.0427V89.8531H410.972V63.1006C410.972 60.4814 410.566 58.5795 409.755 57.3946C409.006 56.2098 407.601 55.6174 405.541 55.6174C404.043 55.6174 402.732 55.9292 401.608 56.5528C400.484 57.1764 399.298 58.0494 398.05 59.1719V89.8531H381.944V43.083Z" fill="black"/>
<path d="M449.235 94.9042C449.235 96.4009 450.202 97.4922 452.138 98.1782C454.073 98.8641 456.633 99.2071 459.816 99.2071C463 99.2071 465.591 98.8018 467.588 97.9911C469.649 97.2427 470.679 96.2138 470.679 94.9042C470.679 93.657 470.054 92.8775 468.806 92.5657C467.557 92.2539 465.747 92.098 463.375 92.098H458.693C456.882 92.098 455.446 92.0357 454.385 91.911C453.324 91.8486 452.387 91.7239 451.576 91.5368C450.764 92.098 450.171 92.6281 449.797 93.127C449.422 93.6259 449.235 94.2183 449.235 94.9042ZM436.219 97.5234C436.219 93.7818 438.591 90.7885 443.335 88.5435V88.1694C442.024 87.2963 440.901 86.2362 439.964 84.989C439.09 83.7418 438.653 82.1204 438.653 80.1249C438.653 78.5035 439.184 76.9133 440.245 75.3543C441.307 73.7953 442.649 72.4546 444.272 71.3321V70.9579C442.461 69.8355 440.932 68.2453 439.683 66.1874C438.497 64.1295 437.904 61.7286 437.904 58.9848C437.904 56.1162 438.466 53.6218 439.59 51.5016C440.714 49.319 442.243 47.5417 444.178 46.1698C446.113 44.7355 448.298 43.6754 450.733 42.9894C453.23 42.3035 455.852 41.9605 458.599 41.9605C461.533 41.9605 464.186 42.3346 466.558 43.083H485.474V54.6819H477.046C477.358 55.2432 477.639 55.9603 477.889 56.8334C478.201 57.7064 478.357 58.6106 478.357 59.546C478.357 62.2899 477.858 64.6596 476.859 66.6551C475.86 68.5883 474.456 70.1784 472.645 71.4256C470.897 72.6729 468.806 73.6083 466.371 74.2319C463.999 74.7931 461.408 75.0737 458.599 75.0737C456.789 75.0737 454.822 74.8555 452.7 74.4189C452.138 74.8555 451.732 75.2608 451.482 75.635C451.295 75.9468 451.201 76.4456 451.201 77.1316C451.201 78.1917 451.763 78.94 452.887 79.3766C454.011 79.7507 455.883 79.9378 458.505 79.9378H466.465C472.708 79.9378 477.514 80.9044 480.886 82.8376C484.257 84.7084 485.942 87.7952 485.942 92.098C485.942 94.6548 485.255 96.9621 483.882 99.02C482.571 101.14 480.667 102.949 478.17 104.445C475.673 105.942 472.645 107.096 469.087 107.906C465.591 108.717 461.658 109.122 457.288 109.122C454.354 109.122 451.607 108.904 449.048 108.468C446.55 108.093 444.334 107.439 442.399 106.503C440.464 105.568 438.934 104.352 437.811 102.855C436.749 101.421 436.219 99.6436 436.219 97.5234ZM458.599 65.5326C460.16 65.5326 461.502 65.0026 462.626 63.9424C463.749 62.8823 464.311 61.2298 464.311 58.9848C464.311 56.8022 463.749 55.212 462.626 54.2142C461.502 53.1541 460.16 52.6241 458.599 52.6241C457.038 52.6241 455.696 53.1541 454.572 54.2142C453.511 55.212 452.981 56.8022 452.981 58.9848C452.981 61.2298 453.511 62.8823 454.572 63.9424C455.696 65.0026 457.038 65.5326 458.599 65.5326Z" fill="black"/>
<path d="M493.303 76.5704C493.303 73.9512 493.834 71.6439 494.895 69.6484C496.019 67.6529 497.736 65.9691 500.045 64.5972C502.418 63.1629 505.477 62.0404 509.222 61.2298C512.968 60.4191 517.525 59.8578 522.894 59.546C522.582 57.8623 521.645 56.6463 520.085 55.898C518.586 55.0873 516.526 54.6819 513.904 54.6819C511.907 54.6819 509.846 55.0249 507.724 55.7109C505.664 56.3345 503.229 57.3011 500.42 58.6106L494.801 48.1341C498.36 46.1386 501.981 44.6108 505.664 43.5507C509.347 42.4905 513.155 41.9605 517.088 41.9605C520.397 41.9605 523.393 42.397 526.078 43.27C528.824 44.0807 531.134 45.3903 533.007 47.1987C534.942 48.9448 536.409 51.221 537.408 54.0272C538.469 56.771 539 60.0449 539 63.8489V89.8531H525.89L524.767 84.989H524.392C522.082 86.6727 519.585 88.107 516.901 89.2918C514.216 90.4143 511.407 90.9756 508.473 90.9756C506.038 90.9756 503.885 90.6014 502.012 89.8531C500.139 89.0424 498.547 87.9823 497.236 86.6727C495.925 85.3631 494.926 83.8353 494.24 82.0892C493.615 80.3431 493.303 78.5035 493.303 76.5704ZM508.66 75.2608C508.66 77.5058 510.346 78.6282 513.717 78.6282C515.59 78.6282 517.275 78.2853 518.774 77.5993C520.272 76.851 521.645 76.0091 522.894 75.0737V69.0871C520.022 69.2119 517.65 69.4613 515.777 69.8355C513.967 70.1473 512.531 70.5838 511.47 71.145C510.408 71.7063 509.659 72.3299 509.222 73.0158C508.848 73.7018 508.66 74.4501 508.66 75.2608Z" fill="black"/>
<path d="M174.769 124.637H155.01V116.779H203.891V124.637H184.133V178.048H174.769V124.637Z" fill="black"/>
<path d="M220.429 132.307H228.107L228.857 142.971H229.138C231.51 139.229 234.381 136.329 237.753 134.271C241.186 132.213 244.963 131.184 249.083 131.184C250.893 131.184 252.485 131.34 253.859 131.652C255.232 131.902 256.637 132.369 258.073 133.055L256.012 141.006C254.452 140.507 253.11 140.133 251.986 139.884C250.862 139.634 249.426 139.51 247.678 139.51C244.37 139.51 241.186 140.445 238.127 142.316C235.068 144.187 232.259 147.429 229.699 152.044V178.048H220.429V132.307Z" fill="black"/>
<path d="M270.771 165.981C270.771 163.425 271.364 161.18 272.55 159.247C273.799 157.313 275.703 155.661 278.262 154.289C280.884 152.917 284.224 151.795 288.282 150.921C292.402 150.048 297.334 149.394 303.077 148.957C302.952 146.151 302.016 143.75 300.268 141.755C298.583 139.759 295.711 138.761 291.653 138.761C288.844 138.761 286.097 139.291 283.413 140.351C280.791 141.412 278.356 142.596 276.109 143.906L272.644 137.639C273.893 136.89 275.297 136.142 276.858 135.394C278.419 134.583 280.073 133.866 281.821 133.242C283.631 132.619 285.473 132.12 287.346 131.746C289.281 131.372 291.247 131.184 293.245 131.184C299.613 131.184 304.388 132.899 307.572 136.329C310.756 139.759 312.348 144.498 312.348 150.547V178.048H304.763L304.014 172.155H303.733C301.298 174.026 298.551 175.678 295.492 177.113C292.496 178.485 289.406 179.171 286.222 179.171C284.037 179.171 281.977 178.859 280.042 178.235C278.169 177.612 276.546 176.739 275.172 175.616C273.799 174.431 272.706 173.028 271.895 171.407C271.146 169.785 270.771 167.977 270.771 165.981ZM279.761 165.327C279.761 167.634 280.635 169.287 282.383 170.284C284.193 171.282 286.347 171.781 288.844 171.781C291.279 171.781 293.651 171.251 295.961 170.191C298.333 169.131 300.705 167.634 303.077 165.701V154.85C298.583 155.224 294.837 155.723 291.84 156.347C288.844 156.908 286.44 157.656 284.63 158.592C282.882 159.465 281.634 160.463 280.884 161.585C280.135 162.708 279.761 163.955 279.761 165.327Z" fill="black"/>
<path d="M326.919 155.224C326.919 151.42 327.606 148.022 328.979 145.028C330.353 142.035 332.226 139.51 334.598 137.452C336.97 135.394 339.686 133.835 342.745 132.775C345.866 131.715 349.175 131.184 352.67 131.184C356.416 131.184 359.694 131.839 362.503 133.149C365.312 134.396 367.653 135.924 369.526 137.732L365.031 143.625C363.221 142.129 361.348 140.975 359.413 140.164C357.477 139.291 355.386 138.855 353.139 138.855C350.704 138.855 348.457 139.26 346.397 140.071C344.336 140.819 342.557 141.91 341.059 143.345C339.623 144.779 338.499 146.525 337.688 148.583C336.876 150.578 336.471 152.792 336.471 155.224C336.471 157.656 336.845 159.901 337.594 161.959C338.406 163.955 339.53 165.67 340.965 167.104C342.464 168.538 344.212 169.661 346.209 170.471C348.207 171.22 350.423 171.594 352.858 171.594C355.667 171.594 358.195 171.064 360.443 170.004C362.69 168.944 364.719 167.665 366.529 166.169L370.462 172.155C367.84 174.4 364.969 176.146 361.847 177.393C358.726 178.578 355.48 179.171 352.109 179.171C348.55 179.171 345.21 178.641 342.089 177.58C339.03 176.52 336.377 174.961 334.13 172.903C331.882 170.846 330.103 168.351 328.792 165.42C327.544 162.427 326.919 159.028 326.919 155.224Z" fill="black"/>
<path d="M385.127 111.728H394.398V154.944H394.772L417.34 132.307H427.734L409.849 150.641L429.981 178.048H419.775L404.136 156.347L394.398 165.888V178.048H385.127V111.728Z" fill="black"/>
<path d="M438.185 155.224C438.185 151.483 438.841 148.146 440.152 145.216C441.463 142.222 443.211 139.697 445.396 137.639C447.581 135.519 450.078 133.928 452.887 132.868C455.696 131.746 458.599 131.184 461.595 131.184C464.967 131.184 467.932 131.715 470.491 132.775C473.113 133.835 475.329 135.331 477.14 137.265C478.95 139.135 480.324 141.412 481.26 144.093C482.196 146.712 482.665 149.612 482.665 152.792C482.665 153.728 482.602 154.632 482.477 155.505C482.415 156.316 482.321 157.002 482.196 157.563H447.737C448.049 162.053 449.703 165.576 452.7 168.133C455.759 170.627 459.598 171.874 464.217 171.874C466.715 171.874 469.024 171.531 471.147 170.846C473.332 170.16 475.454 169.193 477.514 167.946L480.792 173.839C478.42 175.335 475.735 176.614 472.739 177.674C469.805 178.672 466.558 179.171 463 179.171C459.567 179.171 456.32 178.641 453.261 177.58C450.265 176.458 447.643 174.868 445.396 172.81C443.148 170.752 441.369 168.258 440.058 165.327C438.809 162.333 438.185 158.966 438.185 155.224ZM474.05 151.202C474.05 147.086 472.988 143.937 470.866 141.755C468.743 139.572 465.716 138.481 461.783 138.481C458.349 138.481 455.29 139.572 452.606 141.755C449.922 143.937 448.267 147.086 447.643 151.202H474.05Z" fill="black"/>
<path d="M501.169 132.307H508.848L509.597 142.971H509.878C512.25 139.229 515.122 136.329 518.493 134.271C521.926 132.213 525.703 131.184 529.823 131.184C531.634 131.184 533.225 131.34 534.599 131.652C535.972 131.902 537.377 132.369 538.813 133.055L536.753 141.006C535.192 140.507 533.85 140.133 532.726 139.884C531.602 139.634 530.167 139.51 528.419 139.51C525.11 139.51 521.926 140.445 518.867 142.316C515.808 144.187 512.999 147.429 510.44 152.044V178.048H501.169V132.307Z" fill="black"/>
</svg>
