<svg width="288" height="327" viewBox="0 0 288 327" fill="none" xmlns="http://www.w3.org/2000/svg">
<path fill-rule="evenodd" clip-rule="evenodd" d="M92.7065 61.5664C92.7065 27.6217 120.125 0 153.832 0C187.539 0 214.957 27.6217 214.957 61.5664C214.957 109.808 159.577 159.618 157.214 161.716C156.249 162.572 155.04 163 153.832 163C152.623 163 151.414 162.572 150.449 161.71C148.086 159.618 92.7065 109.808 92.7065 61.5664ZM188.533 56.5585C189.508 54.8763 191.328 53.743 193.408 53.743C196.513 53.743 199.038 56.2682 199.038 59.374C199.038 62.4799 196.513 65.005 193.408 65.005C191.328 65.005 189.508 63.8718 188.533 62.1895H183.42C182.846 68.2319 180.448 73.7501 176.781 78.1826L180.408 81.8096C182.285 81.3085 184.373 81.7941 185.844 83.2633C188.04 85.4594 188.04 89.0315 185.844 91.2276C183.644 93.4277 180.072 93.4196 177.88 91.2276C176.411 89.7569 175.925 87.6685 176.426 85.7913L172.799 82.1642C168.367 85.831 162.849 88.2293 156.806 88.8029V93.9166C158.488 94.8914 159.622 96.711 159.622 98.7909C159.622 101.897 157.096 104.422 153.991 104.422C150.885 104.422 148.36 101.897 148.36 98.7909C148.36 96.711 149.493 94.8914 151.175 93.9166V88.8029C145.133 88.2293 139.615 85.831 135.182 82.1642L131.555 85.7913C132.056 87.6685 131.571 89.7567 130.101 91.2276C127.909 93.4196 124.337 93.4277 122.137 91.2276C119.941 89.0315 119.941 85.4594 122.137 83.2633C123.608 81.7943 125.696 81.3085 127.573 81.8096L131.2 78.1826C127.534 73.7501 125.135 68.2319 124.562 62.1895H119.448C118.473 63.8718 116.654 65.005 114.574 65.005C111.468 65.005 108.943 62.4799 108.943 59.374C108.943 56.2682 111.468 53.743 114.574 53.743C116.654 53.743 118.473 54.8763 119.448 56.5585H124.562C125.135 50.5161 127.534 44.998 131.2 40.5655L127.573 36.9384C125.707 37.441 123.611 36.9559 122.137 35.4848C119.941 33.2887 119.941 29.7165 122.137 27.5204C124.333 25.3244 127.905 25.3244 130.101 27.5204C131.57 28.9912 132.056 31.0794 131.555 32.9568L135.182 36.5839C139.615 32.917 145.133 30.5188 151.175 29.9451V24.8315C149.493 23.8566 148.36 22.0371 148.36 19.9572C148.36 16.8513 150.885 14.3262 153.991 14.3262C157.096 14.3262 159.622 16.8513 159.622 19.9572C159.622 22.0371 158.488 23.8566 156.806 24.8315V29.9451C162.849 30.5188 168.367 32.917 172.799 36.5839L176.426 32.9568C175.925 31.0796 176.411 28.9914 177.88 27.5204C180.076 25.3244 183.648 25.3244 185.844 27.5204C188.04 29.7165 188.04 33.2887 185.844 35.4848C184.37 36.9567 182.274 37.4406 180.408 36.9384L176.781 40.5655C180.448 44.998 182.846 50.5161 183.42 56.5585H188.533Z" fill="#F05600"/>
<circle cx="141.502" cy="55.9155" r="6.77237" fill="#F05600"/>
<circle cx="162.948" cy="49.1431" r="4.89116" fill="#F05600"/>
<circle cx="157.869" cy="74.1633" r="7.33674" fill="#F05600"/>
<path fill-rule="evenodd" clip-rule="evenodd" d="M105.707 184.735C105.707 181.016 108.575 178 112.114 178L194.557 178C198.096 178 200.964 181.016 200.964 184.735C200.964 188.455 198.096 191.471 194.557 191.471L112.114 191.471C108.575 191.471 105.707 188.455 105.707 184.735Z" fill="#F05600"/>
<path d="M0.84 237.6C0.84 233.773 1.42333 230.39 2.59 227.45C3.75667 224.463 5.34333 221.967 7.35 219.96C9.35667 217.907 11.7133 216.343 14.42 215.27C17.1267 214.197 20.02 213.66 23.1 213.66C26.04 213.66 28.6767 214.267 31.01 215.48C33.3433 216.647 35.3267 218 36.96 219.54L30.38 226.96C29.3067 226.027 28.21 225.303 27.09 224.79C25.97 224.277 24.64 224.02 23.1 224.02C21.7 224.02 20.3933 224.323 19.18 224.93C17.9667 225.537 16.9167 226.4 16.03 227.52C15.1433 228.64 14.4433 230.017 13.93 231.65C13.4167 233.283 13.16 235.127 13.16 237.18C13.16 241.473 14.14 244.763 16.1 247.05C18.06 249.337 20.58 250.48 23.66 250.48C25.1533 250.48 26.4833 250.153 27.65 249.5C28.8633 248.8 29.96 247.913 30.94 246.84L37.52 254.12C35.56 256.36 33.3433 258.04 30.87 259.16C28.3967 260.28 25.76 260.84 22.96 260.84C19.9733 260.84 17.15 260.373 14.49 259.44C11.83 258.46 9.47333 257.013 7.42 255.1C5.41333 253.14 3.80333 250.713 2.59 247.82C1.42333 244.88 0.84 241.473 0.84 237.6Z" fill="black"/>
<path d="M42.1827 242.5C42.1827 239.607 42.6727 237.017 43.6527 234.73C44.6793 232.443 46.0327 230.53 47.7127 228.99C49.3927 227.403 51.306 226.213 53.4527 225.42C55.646 224.58 57.9093 224.16 60.2427 224.16C62.5293 224.16 64.746 224.58 66.8927 225.42C69.086 226.213 71.0227 227.403 72.7027 228.99C74.3827 230.53 75.736 232.443 76.7627 234.73C77.7893 237.017 78.3027 239.607 78.3027 242.5C78.3027 245.393 77.7893 247.983 76.7627 250.27C75.736 252.557 74.3827 254.493 72.7027 256.08C71.0227 257.62 69.086 258.81 66.8927 259.65C64.746 260.443 62.5293 260.84 60.2427 260.84C57.9093 260.84 55.646 260.443 53.4527 259.65C51.306 258.81 49.3927 257.62 47.7127 256.08C46.0327 254.493 44.6793 252.557 43.6527 250.27C42.6727 247.983 42.1827 245.393 42.1827 242.5ZM54.5027 242.5C54.5027 245.16 54.946 247.283 55.8327 248.87C56.7193 250.41 58.1893 251.18 60.2427 251.18C62.296 251.18 63.766 250.41 64.6527 248.87C65.5393 247.283 65.9827 245.16 65.9827 242.5C65.9827 239.84 65.5393 237.74 64.6527 236.2C63.766 234.613 62.296 233.82 60.2427 233.82C58.1893 233.82 56.7193 234.613 55.8327 236.2C54.946 237.74 54.5027 239.84 54.5027 242.5Z" fill="black"/>
<path d="M88.4953 225H98.3653L99.2753 232.42H99.5553C101.235 229.527 103.265 227.427 105.645 226.12C108.025 224.813 110.545 224.16 113.205 224.16C114.839 224.16 116.099 224.3 116.985 224.58C117.919 224.813 118.875 225.14 119.855 225.56L117.475 235.64C116.402 235.313 115.422 235.08 114.535 234.94C113.695 234.753 112.645 234.66 111.385 234.66C109.379 234.66 107.395 235.267 105.435 236.48C103.475 237.647 101.842 239.7 100.535 242.64V260H88.4953V225Z" fill="black"/>
<path d="M126.128 242.5C126.128 239.607 126.618 237.017 127.598 234.73C128.625 232.443 129.978 230.53 131.658 228.99C133.338 227.403 135.251 226.213 137.398 225.42C139.591 224.58 141.855 224.16 144.188 224.16C146.475 224.16 148.691 224.58 150.838 225.42C153.031 226.213 154.968 227.403 156.648 228.99C158.328 230.53 159.681 232.443 160.708 234.73C161.735 237.017 162.248 239.607 162.248 242.5C162.248 245.393 161.735 247.983 160.708 250.27C159.681 252.557 158.328 254.493 156.648 256.08C154.968 257.62 153.031 258.81 150.838 259.65C148.691 260.443 146.475 260.84 144.188 260.84C141.855 260.84 139.591 260.443 137.398 259.65C135.251 258.81 133.338 257.62 131.658 256.08C129.978 254.493 128.625 252.557 127.598 250.27C126.618 247.983 126.128 245.393 126.128 242.5ZM138.448 242.5C138.448 245.16 138.891 247.283 139.778 248.87C140.665 250.41 142.135 251.18 144.188 251.18C146.241 251.18 147.711 250.41 148.598 248.87C149.485 247.283 149.928 245.16 149.928 242.5C149.928 239.84 149.485 237.74 148.598 236.2C147.711 234.613 146.241 233.82 144.188 233.82C142.135 233.82 140.665 234.613 139.778 236.2C138.891 237.74 138.448 239.84 138.448 242.5Z" fill="black"/>
<path d="M169.641 225H179.441L180.281 229.2H180.561C181.961 227.847 183.617 226.68 185.531 225.7C187.444 224.673 189.684 224.16 192.251 224.16C196.124 224.16 198.947 225.467 200.721 228.08C202.494 230.647 203.381 234.1 203.381 238.44V260H191.341V239.98C191.341 238.02 191.037 236.597 190.431 235.71C189.871 234.823 188.821 234.38 187.281 234.38C186.161 234.38 185.181 234.613 184.341 235.08C183.501 235.547 182.614 236.2 181.681 237.04V260H169.641V225Z" fill="black"/>
<path d="M219.943 263.78C219.943 264.9 220.667 265.717 222.113 266.23C223.56 266.743 225.473 267 227.853 267C230.233 267 232.17 266.697 233.663 266.09C235.203 265.53 235.973 264.76 235.973 263.78C235.973 262.847 235.507 262.263 234.573 262.03C233.64 261.797 232.287 261.68 230.513 261.68H227.013C225.66 261.68 224.587 261.633 223.793 261.54C223 261.493 222.3 261.4 221.693 261.26C221.087 261.68 220.643 262.077 220.363 262.45C220.083 262.823 219.943 263.267 219.943 263.78ZM210.213 265.74C210.213 262.94 211.987 260.7 215.533 259.02V258.74C214.553 258.087 213.713 257.293 213.013 256.36C212.36 255.427 212.033 254.213 212.033 252.72C212.033 251.507 212.43 250.317 213.223 249.15C214.017 247.983 215.02 246.98 216.233 246.14V245.86C214.88 245.02 213.737 243.83 212.803 242.29C211.917 240.75 211.473 238.953 211.473 236.9C211.473 234.753 211.893 232.887 212.733 231.3C213.573 229.667 214.717 228.337 216.163 227.31C217.61 226.237 219.243 225.443 221.063 224.93C222.93 224.417 224.89 224.16 226.943 224.16C229.137 224.16 231.12 224.44 232.893 225H247.033V233.68H240.733C240.967 234.1 241.177 234.637 241.363 235.29C241.597 235.943 241.713 236.62 241.713 237.32C241.713 239.373 241.34 241.147 240.593 242.64C239.847 244.087 238.797 245.277 237.443 246.21C236.137 247.143 234.573 247.843 232.753 248.31C230.98 248.73 229.043 248.94 226.943 248.94C225.59 248.94 224.12 248.777 222.533 248.45C222.113 248.777 221.81 249.08 221.623 249.36C221.483 249.593 221.413 249.967 221.413 250.48C221.413 251.273 221.833 251.833 222.673 252.16C223.513 252.44 224.913 252.58 226.873 252.58H232.823C237.49 252.58 241.083 253.303 243.603 254.75C246.123 256.15 247.383 258.46 247.383 261.68C247.383 263.593 246.87 265.32 245.843 266.86C244.863 268.447 243.44 269.8 241.573 270.92C239.707 272.04 237.443 272.903 234.783 273.51C232.17 274.117 229.23 274.42 225.963 274.42C223.77 274.42 221.717 274.257 219.803 273.93C217.937 273.65 216.28 273.16 214.833 272.46C213.387 271.76 212.243 270.85 211.403 269.73C210.61 268.657 210.213 267.327 210.213 265.74ZM226.943 241.8C228.11 241.8 229.113 241.403 229.953 240.61C230.793 239.817 231.213 238.58 231.213 236.9C231.213 235.267 230.793 234.077 229.953 233.33C229.113 232.537 228.11 232.14 226.943 232.14C225.777 232.14 224.773 232.537 223.933 233.33C223.14 234.077 222.743 235.267 222.743 236.9C222.743 238.58 223.14 239.817 223.933 240.61C224.773 241.403 225.777 241.8 226.943 241.8Z" fill="black"/>
<path d="M252.886 250.06C252.886 248.1 253.283 246.373 254.076 244.88C254.916 243.387 256.199 242.127 257.926 241.1C259.699 240.027 261.986 239.187 264.786 238.58C267.586 237.973 270.993 237.553 275.006 237.32C274.773 236.06 274.073 235.15 272.906 234.59C271.786 233.983 270.246 233.68 268.286 233.68C266.793 233.68 265.253 233.937 263.666 234.45C262.126 234.917 260.306 235.64 258.206 236.62L254.006 228.78C256.666 227.287 259.373 226.143 262.126 225.35C264.879 224.557 267.726 224.16 270.666 224.16C273.139 224.16 275.379 224.487 277.386 225.14C279.439 225.747 281.166 226.727 282.566 228.08C284.013 229.387 285.109 231.09 285.856 233.19C286.649 235.243 287.046 237.693 287.046 240.54V260H277.246L276.406 256.36H276.126C274.399 257.62 272.533 258.693 270.526 259.58C268.519 260.42 266.419 260.84 264.226 260.84C262.406 260.84 260.796 260.56 259.396 260C257.996 259.393 256.806 258.6 255.826 257.62C254.846 256.64 254.099 255.497 253.586 254.19C253.119 252.883 252.886 251.507 252.886 250.06ZM264.366 249.08C264.366 250.76 265.626 251.6 268.146 251.6C269.546 251.6 270.806 251.343 271.926 250.83C273.046 250.27 274.073 249.64 275.006 248.94V244.46C272.859 244.553 271.086 244.74 269.686 245.02C268.333 245.253 267.259 245.58 266.466 246C265.673 246.42 265.113 246.887 264.786 247.4C264.506 247.913 264.366 248.473 264.366 249.08Z" fill="black"/>
<path d="M14.77 286.03H0V280.15H36.54V286.03H21.77V326H14.77V286.03Z" fill="black"/>
<path d="M48.9027 291.77H54.6427L55.2027 299.75H55.4127C57.186 296.95 59.3327 294.78 61.8527 293.24C64.4193 291.7 67.2427 290.93 70.3227 290.93C71.676 290.93 72.866 291.047 73.8927 291.28C74.9193 291.467 75.9693 291.817 77.0427 292.33L75.5027 298.28C74.336 297.907 73.3327 297.627 72.4927 297.44C71.6527 297.253 70.5793 297.16 69.2727 297.16C66.7993 297.16 64.4193 297.86 62.1327 299.26C59.846 300.66 57.746 303.087 55.8327 306.54V326H48.9027V291.77Z" fill="black"/>
<path d="M86.5353 316.97C86.5353 315.057 86.9786 313.377 87.8653 311.93C88.7986 310.483 90.222 309.247 92.1353 308.22C94.0953 307.193 96.592 306.353 99.6253 305.7C102.705 305.047 106.392 304.557 110.685 304.23C110.592 302.13 109.892 300.333 108.585 298.84C107.325 297.347 105.179 296.6 102.145 296.6C100.045 296.6 97.992 296.997 95.9853 297.79C94.0253 298.583 92.2053 299.47 90.5253 300.45L87.9353 295.76C88.8686 295.2 89.9186 294.64 91.0853 294.08C92.252 293.473 93.4886 292.937 94.7953 292.47C96.1486 292.003 97.5253 291.63 98.9253 291.35C100.372 291.07 101.842 290.93 103.335 290.93C108.095 290.93 111.665 292.213 114.045 294.78C116.425 297.347 117.615 300.893 117.615 305.42V326H111.945L111.385 321.59H111.175C109.355 322.99 107.302 324.227 105.015 325.3C102.775 326.327 100.465 326.84 98.0853 326.84C96.452 326.84 94.912 326.607 93.4653 326.14C92.0653 325.673 90.852 325.02 89.8253 324.18C88.7986 323.293 87.982 322.243 87.3753 321.03C86.8153 319.817 86.5353 318.463 86.5353 316.97ZM93.2553 316.48C93.2553 318.207 93.9086 319.443 95.2153 320.19C96.5686 320.937 98.1786 321.31 100.045 321.31C101.865 321.31 103.639 320.913 105.365 320.12C107.139 319.327 108.912 318.207 110.685 316.76V308.64C107.325 308.92 104.525 309.293 102.285 309.76C100.045 310.18 98.2486 310.74 96.8953 311.44C95.5886 312.093 94.6553 312.84 94.0953 313.68C93.5353 314.52 93.2553 315.453 93.2553 316.48Z" fill="black"/>
<path d="M128.508 308.92C128.508 306.073 129.021 303.53 130.048 301.29C131.075 299.05 132.475 297.16 134.248 295.62C136.021 294.08 138.051 292.913 140.338 292.12C142.671 291.327 145.145 290.93 147.758 290.93C150.558 290.93 153.008 291.42 155.108 292.4C157.208 293.333 158.958 294.477 160.358 295.83L156.998 300.24C155.645 299.12 154.245 298.257 152.798 297.65C151.351 296.997 149.788 296.67 148.108 296.67C146.288 296.67 144.608 296.973 143.068 297.58C141.528 298.14 140.198 298.957 139.078 300.03C138.005 301.103 137.165 302.41 136.558 303.95C135.951 305.443 135.648 307.1 135.648 308.92C135.648 310.74 135.928 312.42 136.488 313.96C137.095 315.453 137.935 316.737 139.008 317.81C140.128 318.883 141.435 319.723 142.928 320.33C144.421 320.89 146.078 321.17 147.898 321.17C149.998 321.17 151.888 320.773 153.568 319.98C155.248 319.187 156.765 318.23 158.118 317.11L161.058 321.59C159.098 323.27 156.951 324.577 154.618 325.51C152.285 326.397 149.858 326.84 147.338 326.84C144.678 326.84 142.181 326.443 139.848 325.65C137.561 324.857 135.578 323.69 133.898 322.15C132.218 320.61 130.888 318.743 129.908 316.55C128.975 314.31 128.508 311.767 128.508 308.92Z" fill="black"/>
<path d="M172.021 276.37H178.951V308.71H179.231L196.101 291.77H203.871L190.501 305.49L205.551 326H197.921L186.231 309.76L178.951 316.9V326H172.021V276.37Z" fill="black"/>
<path d="M211.683 308.92C211.683 306.12 212.173 303.623 213.153 301.43C214.133 299.19 215.44 297.3 217.073 295.76C218.707 294.173 220.573 292.983 222.673 292.19C224.773 291.35 226.943 290.93 229.183 290.93C231.703 290.93 233.92 291.327 235.833 292.12C237.793 292.913 239.45 294.033 240.803 295.48C242.157 296.88 243.183 298.583 243.883 300.59C244.583 302.55 244.933 304.72 244.933 307.1C244.933 307.8 244.887 308.477 244.793 309.13C244.747 309.737 244.677 310.25 244.583 310.67H218.823C219.057 314.03 220.293 316.667 222.533 318.58C224.82 320.447 227.69 321.38 231.143 321.38C233.01 321.38 234.737 321.123 236.323 320.61C237.957 320.097 239.543 319.373 241.083 318.44L243.533 322.85C241.76 323.97 239.753 324.927 237.513 325.72C235.32 326.467 232.893 326.84 230.233 326.84C227.667 326.84 225.24 326.443 222.953 325.65C220.713 324.81 218.753 323.62 217.073 322.08C215.393 320.54 214.063 318.673 213.083 316.48C212.15 314.24 211.683 311.72 211.683 308.92ZM238.493 305.91C238.493 302.83 237.7 300.473 236.113 298.84C234.527 297.207 232.263 296.39 229.323 296.39C226.757 296.39 224.47 297.207 222.463 298.84C220.457 300.473 219.22 302.83 218.753 305.91H238.493Z" fill="black"/>
<path d="M258.766 291.77H264.506L265.066 299.75H265.276C267.049 296.95 269.196 294.78 271.716 293.24C274.283 291.7 277.106 290.93 280.186 290.93C281.539 290.93 282.729 291.047 283.756 291.28C284.783 291.467 285.833 291.817 286.906 292.33L285.366 298.28C284.199 297.907 283.196 297.627 282.356 297.44C281.516 297.253 280.443 297.16 279.136 297.16C276.663 297.16 274.283 297.86 271.996 299.26C269.709 300.66 267.609 303.087 265.696 306.54V326H258.766V291.77Z" fill="black"/>
</svg>
