<svg width="260" height="265" viewBox="0 0 260 265" fill="none" xmlns="http://www.w3.org/2000/svg">
<path d="M180.998 157.251C212.808 112.332 202.17 50.1321 157.251 18.3294C112.332 -13.4733 50.1321 -2.84203 18.3294 42.0845C-13.4733 87.0035 -2.84203 149.195 42.0845 180.998C74.1456 203.697 116.534 205.445 150.351 185.474L223.827 258.51C231.761 266.862 244.961 267.196 253.312 259.262C261.664 251.336 261.998 238.137 254.072 229.785C253.821 229.519 253.578 229.276 253.312 229.025L180.998 157.251ZM99.603 164.059C64.107 164.067 35.3288 135.312 35.306 99.8157C35.2984 64.3198 64.0538 35.5416 99.5574 35.5264C135.008 35.5112 163.771 64.221 163.839 99.6714C163.9 135.175 135.16 163.999 99.6486 164.059C99.6334 164.059 99.6258 164.059 99.603 164.059Z" fill="black"/>
</svg>
