<svg width="240" height="264" viewBox="0 0 240 264" fill="none" xmlns="http://www.w3.org/2000/svg">
<path d="M196.265 182.162C186.577 182.162 177.791 185.683 170.919 191.416L83.1972 140.261C83.6981 137.791 84.0062 135.215 84.0062 132.574C84.0062 129.932 83.698 127.357 83.197 124.887L169.944 74.2531C177.03 80.3012 186.198 84.0062 196.265 84.0062C218.749 84.0062 237.019 65.737 237.019 43.2531C237.019 20.7692 218.749 2.5 196.265 2.5C173.782 2.5 155.512 20.7692 155.512 43.2531C155.512 45.8947 155.821 48.4706 156.322 50.9407L69.5744 101.574C62.4887 95.5254 53.3209 91.8204 43.2531 91.8204C20.7692 91.8204 2.5 110.09 2.5 132.574C2.5 155.057 20.7692 173.327 43.2531 173.327C53.3212 173.327 62.4892 169.621 69.575 163.573L157.291 214.726C156.852 217.015 156.596 219.395 156.596 221.831C156.596 243.741 174.355 261.5 196.265 261.5C218.176 261.5 235.935 243.741 235.935 221.831C235.935 199.92 218.176 182.162 196.265 182.162Z" fill="black" stroke="black" stroke-width="5"/>
</svg>
